<?xml version="1.0" encoding="UTF-8"?>
<svg width="447px" height="284px" viewBox="0 0 447 284" version="1.1" xmlns="http://www.w3.org/2000/svg" xmlns:xlink="http://www.w3.org/1999/xlink">
  <title>Page 1</title>
  <defs>
    <linearGradient x1="80.26323%" y1="76.3866489%" x2="6.4557421%" y2="15.6603889%" id="linearGradient-1">
      <stop stop-color="#456563" offset="0%"></stop>
      <stop stop-color="#5A877E" offset="20.7110431%"></stop>
      <stop stop-color="#FDC343" offset="44.0403294%"></stop>
      <stop stop-color="#E99877" offset="70.0960726%"></stop>
      <stop stop-color="#A4574E" offset="100%"></stop>
    </linearGradient>
    <linearGradient x1="80.26323%" y1="77.9509795%" x2="6.4557421%" y2="13.6245675%" id="linearGradient-2">
      <stop stop-color="#456563" offset="0%"></stop>
      <stop stop-color="#5A877E" offset="20.7110431%"></stop>
      <stop stop-color="#FDC343" offset="44.0403294%"></stop>
      <stop stop-color="#E99877" offset="70.0960726%"></stop>
      <stop stop-color="#A4574E" offset="100%"></stop>
    </linearGradient>
    <linearGradient x1="100%" y1="52.6238155%" x2="6.4557421%" y2="48.7837724%" id="linearGradient-3">
      <stop stop-color="#456563" offset="0%"></stop>
      <stop stop-color="#5A877E" offset="20.7110431%"></stop>
      <stop stop-color="#FDC343" offset="44.0403294%"></stop>
      <stop stop-color="#E99877" offset="70.0960726%"></stop>
      <stop stop-color="#A4574E" offset="100%"></stop>
    </linearGradient>
    <linearGradient x1="80.26323%" y1="65.4289746%" x2="6.4557421%" y2="29.9207171%" id="linearGradient-4">
      <stop stop-color="#456563" offset="0%"></stop>
      <stop stop-color="#5A877E" offset="20.7110431%"></stop>
      <stop stop-color="#FDC343" offset="44.0403294%"></stop>
      <stop stop-color="#E99877" offset="70.0960726%"></stop>
      <stop stop-color="#A4574E" offset="100%"></stop>
    </linearGradient>
  </defs>
  <g id="Page-1" stroke="none" stroke-width="1" fill="none" fill-rule="evenodd">
    <g id="Ctw-UX-2020-STACK-Copy-2" transform="translate(-36.000000, -164.000000)" fill-rule="nonzero">
      <g id="Group-3" transform="translate(66.000000, 202.000000)">
        <path d="M0,5.92038411 C0,5.43249548 0.126709762,4.95288197 0.367846221,4.52803664 C1.14085061,3.16612189 2.87733361,2.68544704 4.24638957,3.45441932 L44.0349582,25.8028894 C44.929086,26.3051037 45.4820513,27.2474017 45.4820513,28.2688542 L45.4820513,75.5871496 C45.4820513,76.6120573 46.038731,77.556981 46.9376053,78.0578479 L89.1079853,101.555845 C89.9727167,102.037687 91.0271335,102.037421 91.8916191,101.555143 L134.010158,78.0581103 C134.908327,77.5570414 135.464453,76.6125079 135.464453,75.5881142 L135.464453,27.3762075 C135.464453,26.3384238 136.03508,25.383768 136.951644,24.888142 L176.793709,3.34382679 C177.210967,3.11819744 177.67834,3 178.153259,3 C179.72547,3 181,4.26788136 181,5.83189227 L181,100.678047 C181,101.699654 180.446868,102.64207 179.552528,103.144225 L91.4103896,152.634285 C90.5377728,153.124242 89.4704745,153.121741 88.6001876,152.6277 L1.43580858,103.146572 C0.548021556,102.642597 0,101.703816 0,100.686979 L0,5.92038411 Z" id="Path-2" stroke="url(#linearGradient-1)" stroke-width="1.60000002"></path>
        <path d="M222.264191,144.615842 C221.831184,144.867465 221.339364,145 220.838634,145 C219.2709,145 218,143.728307 218,142.159595 L218,97.4151612 C218,96.382423 218.56019,95.4310593 219.462991,94.9305795 L255.437691,74.9875346 C255.893575,74.7348096 256.271127,74.3613776 256.528963,73.9081705 C257.304559,72.544881 256.828829,70.810579 255.46639,70.0344987 L219.434293,49.5096965 C218.547587,49.0046064 218,48.0621951 218,47.0412424 L218,2.84090683 C218,2.35226467 218.125981,1.87188592 218.365765,1.44620656 C219.135557,0.0796266632 220.866737,-0.40377665 222.232465,0.366495038 L301.606169,45.133338 C302.471401,45.6213294 303.528599,45.6213294 304.393831,45.133338 L383.767535,0.366495038 C384.192949,0.126561202 384.673028,0 385.161366,0 C386.7291,0 388,1.27219427 388,2.84090683 L388,47.0235025 C388,48.0539165 387.442307,49.0035202 386.54268,49.5049321 L350.297992,69.7061023 C349.828292,69.9678925 349.44255,70.3577756 349.18566,70.830378 C348.436591,72.2084403 348.945795,73.933199 350.322998,74.6827345 L383.953256,92.9858256 C384.86686,93.4830495 385.435583,94.4403817 385.435583,95.4810281 L385.435583,138.858334 C385.435583,139.335009 385.315694,139.804018 385.086962,140.222151 C384.334216,141.598205 382.609178,142.103116 381.233982,141.349901 L303.695415,98.8808874 C302.823796,98.4034883 301.766156,98.4168844 300.906892,98.9162067 L222.264191,144.615842 Z" id="Path-3" stroke="url(#linearGradient-2)" stroke-width="1.60000002"></path>
        <text id="Design-Studio" fill="url(#linearGradient-3)" font-family="TsukuARdGothic-Regular, Tsukushi A Round Gothic" font-size="34.5600005" font-weight="normal">
          <tspan x="0" y="210">Design Studio</tspan>
        </text>
      </g>
      <rect id="Rectangle" stroke="url(#linearGradient-4)" stroke-width="1.60000002" x="37" y="165" width="445" height="282"></rect>
    </g>
  </g>
</svg>
